<svg version="1.1" id="Layer_1" xmlns="http://www.w3.org/2000/svg" xmlns:xlink="http://www.w3.org/1999/xlink" x="0px" y="0px"
	 width="100%" viewBox="0 0 1450 1450" enable-background="new 0 0 1450 1450" xml:space="preserve">
<path fill="#000000" opacity="1.000000" stroke="none" 
	d="
M1451.000000,550.000000 
	C1451.000000,850.640808 1451.000000,1150.781616 1451.000000,1450.961182 
	C967.734131,1450.961182 484.468201,1450.961182 1.101153,1450.961182 
	C1.101153,967.775696 1.101153,484.551422 1.101153,1.163553 
	C484.333282,1.163553 967.666626,1.163553 1451.000000,1.163553 
	C1451.000000,183.865372 1451.000000,366.682678 1451.000000,550.000000 
M167.999878,956.500000 
	C167.999054,1002.333557 167.924011,1048.167358 168.085358,1094.000244 
	C168.107117,1100.175293 168.685165,1106.496460 170.105789,1112.489014 
	C173.527786,1126.924194 179.354767,1140.572266 190.980728,1150.174072 
	C200.415390,1157.966187 210.961105,1164.554077 221.537857,1170.787354 
	C235.469513,1178.997803 249.917145,1186.332397 264.136993,1194.054443 
	C286.906464,1206.419189 309.666779,1218.800903 332.439972,1231.158813 
	C341.140533,1235.880249 349.903839,1240.487061 358.571838,1245.267212 
	C377.715637,1255.823853 396.785919,1266.514282 415.945984,1277.041260 
	C430.707672,1285.151611 445.626007,1292.977783 460.357971,1301.140869 
	C484.017578,1314.250732 507.530823,1327.625122 531.202209,1340.713379 
	C546.797058,1349.336060 562.546631,1357.679565 578.252319,1366.100708 
	C603.550964,1379.665405 628.890259,1393.154297 654.171509,1406.751343 
	C664.023682,1412.050049 673.817017,1417.463745 683.543518,1422.989624 
	C695.327332,1429.684326 707.753418,1434.847778 721.287537,1435.880615 
	C748.539734,1437.960327 772.637451,1430.446411 792.070496,1410.431152 
	C799.801636,1402.468628 807.388306,1394.365601 815.121094,1386.404541 
	C828.904419,1372.214355 842.736816,1358.071533 856.571045,1343.930908 
	C872.851440,1327.290039 889.154785,1310.671631 905.449707,1294.044922 
	C921.861267,1277.299194 938.275818,1260.556519 954.687256,1243.810791 
	C970.865417,1227.302856 987.037720,1210.789551 1003.218750,1194.284546 
	C1020.332947,1176.827637 1037.457031,1159.380615 1054.571655,1141.924194 
	C1070.752930,1125.419556 1086.929077,1108.910034 1103.104492,1092.399780 
	C1119.035034,1076.139526 1134.961548,1059.875366 1150.890625,1043.613770 
	C1167.052490,1027.114624 1183.195557,1010.596802 1199.382690,994.122559 
	C1220.254028,972.880859 1241.178711,951.691406 1262.034790,930.434814 
	C1265.374023,927.031433 1268.755615,923.607971 1271.634644,919.826050 
	C1280.516968,908.157349 1285.838501,894.713562 1285.850830,880.234192 
	C1286.075806,617.414307 1286.025513,354.594177 1285.951782,91.774117 
	C1285.950684,87.741371 1285.194946,83.646507 1284.312622,79.687370 
	C1280.821045,64.022545 1272.862549,51.001404 1261.384155,39.753815 
	C1240.915527,19.696871 1216.182983,13.620283 1188.892700,18.284899 
	C1165.961670,22.204399 1143.338257,27.954723 1120.619263,33.074604 
	C1095.873779,38.651176 1071.176270,44.440357 1046.455688,50.127556 
	C1024.900635,55.086498 1003.341553,60.028137 981.786133,64.985481 
	C957.060669,70.671883 932.328674,76.330833 907.615234,82.069183 
	C884.950012,87.331940 862.326660,92.775871 839.646790,97.973717 
	C813.036255,104.072395 786.377502,109.960419 759.753113,115.998634 
	C739.418823,120.610306 719.089722,125.247261 698.786621,129.993759 
	C676.297180,135.251389 653.876892,140.808914 631.359009,145.939728 
	C604.250854,152.116470 577.041077,157.847260 549.932007,164.020050 
	C524.281189,169.860794 498.725098,176.116058 473.088165,182.018921 
	C448.050049,187.783920 422.952148,193.288742 397.899628,198.991867 
	C376.163635,203.940002 354.457306,209.018387 332.732544,214.016037 
	C312.402649,218.692795 292.054535,223.290771 271.736115,228.016693 
	C259.285767,230.912567 246.937759,234.275909 234.434692,236.911942 
	C212.899139,241.452316 195.556137,252.488129 182.508118,270.031769 
	C173.847076,281.676971 168.054825,294.773712 168.048645,309.532532 
	C167.958374,524.854980 167.994156,740.177490 167.999878,956.500000 
z"/>
<path fill="#EF512D" opacity="1.000000" stroke="none" 
	d="
M167.999878,956.000000 
	C167.994156,740.177490 167.958374,524.854980 168.048645,309.532532 
	C168.054825,294.773712 173.847076,281.676971 182.508118,270.031769 
	C195.556137,252.488129 212.899139,241.452316 234.434692,236.911942 
	C246.937759,234.275909 259.285767,230.912567 271.736115,228.016693 
	C292.054535,223.290771 312.402649,218.692795 332.732544,214.016037 
	C354.457306,209.018387 376.163635,203.940002 397.899628,198.991867 
	C422.952148,193.288742 448.050049,187.783920 473.088165,182.018921 
	C498.725098,176.116058 524.281189,169.860794 549.932007,164.020050 
	C577.041077,157.847260 604.250854,152.116470 631.359009,145.939728 
	C653.876892,140.808914 676.297180,135.251389 698.786621,129.993759 
	C719.089722,125.247261 739.418823,120.610306 759.753113,115.998634 
	C786.377502,109.960419 813.036255,104.072395 839.646790,97.973717 
	C862.326660,92.775871 884.950012,87.331940 907.615234,82.069183 
	C932.328674,76.330833 957.060669,70.671883 981.786133,64.985481 
	C1003.341553,60.028137 1024.900635,55.086498 1046.455688,50.127556 
	C1071.176270,44.440357 1095.873779,38.651176 1120.619263,33.074604 
	C1143.338257,27.954723 1165.961670,22.204399 1188.892700,18.284899 
	C1216.182983,13.620283 1240.915527,19.696871 1261.384155,39.753815 
	C1272.862549,51.001404 1280.821045,64.022545 1284.312622,79.687370 
	C1285.194946,83.646507 1285.950684,87.741371 1285.951782,91.774117 
	C1286.025513,354.594177 1286.075806,617.414307 1285.850830,880.234192 
	C1285.838501,894.713562 1280.516968,908.157349 1271.634644,919.826050 
	C1268.755615,923.607971 1265.374023,927.031433 1262.034790,930.434814 
	C1241.178711,951.691406 1220.254028,972.880859 1199.382690,994.122559 
	C1183.195557,1010.596802 1167.052490,1027.114624 1150.890625,1043.613770 
	C1134.961548,1059.875366 1119.035034,1076.139526 1103.104492,1092.399780 
	C1086.929077,1108.910034 1070.752930,1125.419556 1054.571655,1141.924194 
	C1037.457031,1159.380615 1020.332947,1176.827637 1003.218750,1194.284546 
	C987.037720,1210.789551 970.865417,1227.302856 954.687256,1243.810791 
	C938.275818,1260.556519 921.861267,1277.299194 905.449707,1294.044922 
	C889.154785,1310.671631 872.851440,1327.290039 856.571045,1343.930908 
	C842.736816,1358.071533 828.904419,1372.214355 815.121094,1386.404541 
	C807.388306,1394.365601 799.801636,1402.468628 792.070496,1410.431152 
	C772.637451,1430.446411 748.539734,1437.960327 721.287537,1435.880615 
	C707.753418,1434.847778 695.327332,1429.684326 683.543518,1422.989624 
	C673.817017,1417.463745 664.023682,1412.050049 654.171509,1406.751343 
	C628.890259,1393.154297 603.550964,1379.665405 578.252319,1366.100708 
	C562.546631,1357.679565 546.797058,1349.336060 531.202209,1340.713379 
	C507.530823,1327.625122 484.017578,1314.250732 460.357971,1301.140869 
	C445.626007,1292.977783 430.707672,1285.151611 415.945984,1277.041260 
	C396.785919,1266.514282 377.715637,1255.823853 358.571838,1245.267212 
	C349.903839,1240.487061 341.140533,1235.880249 332.439972,1231.158813 
	C309.666779,1218.800903 286.906464,1206.419189 264.136993,1194.054443 
	C249.917145,1186.332397 235.469513,1178.997803 221.537857,1170.787354 
	C210.961105,1164.554077 200.415390,1157.966187 190.980728,1150.174072 
	C179.354767,1140.572266 173.527786,1126.924194 170.105789,1112.489014 
	C168.685165,1106.496460 168.107117,1100.175293 168.085358,1094.000244 
	C167.924011,1048.167358 167.999054,1002.333557 167.999878,956.000000 
M951.330872,1139.827026 
	C952.021240,1139.101196 952.701904,1138.365967 953.403198,1137.651001 
	C1036.723389,1052.712280 1120.013428,967.744080 1203.432983,882.903076 
	C1209.448486,876.785156 1212.087280,870.150513 1212.075928,861.546509 
	C1211.908569,735.390869 1211.954224,609.234924 1211.947754,483.079071 
	C1211.941162,357.589844 1211.935181,232.100601 1211.922729,106.611359 
	C1211.921509,93.612518 1208.863892,91.123100 1196.429199,93.891640 
	C1182.512939,96.989975 1168.573853,99.988121 1154.680786,103.186874 
	C1070.988403,122.456345 987.309326,141.783783 903.614868,161.044388 
	C897.279297,162.502411 891.978394,165.355972 887.362610,170.064651 
	C805.238220,253.841125 723.046997,337.552155 640.815796,421.223846 
	C636.562134,425.552032 634.865051,430.391144 634.871216,436.443756 
	C634.977905,541.268005 634.991028,646.092407 634.865417,750.916565 
	C634.857666,757.385010 637.188049,761.334045 642.871460,764.409180 
	C714.597351,803.217346 786.236877,842.185181 857.899048,881.111206 
	C866.333435,885.692749 867.558655,885.536011 874.276794,878.703186 
	C907.340942,845.075012 940.403198,811.444885 973.431763,777.781677 
	C976.989319,774.155884 980.427673,769.976318 986.196106,772.305420 
	C992.113770,774.694763 991.927856,780.273438 991.930420,785.492676 
	C991.952148,829.655579 991.860046,873.818848 992.063293,917.980896 
	C992.097046,925.302734 989.917908,930.923706 984.727173,936.195068 
	C939.362305,982.264526 894.192871,1028.526367 848.952759,1074.718872 
	C846.506836,1077.216309 844.120728,1079.818604 841.404297,1081.994507 
	C836.563477,1085.872070 830.639099,1084.005493 828.748291,1078.074097 
	C828.157776,1076.221680 828.033081,1074.158081 828.029785,1072.190674 
	C827.995544,1051.692505 827.808228,1031.190308 828.172180,1010.698303 
	C828.289307,1004.101685 825.792664,1000.186646 820.141907,997.248779 
	C805.262146,989.512695 790.530334,981.491821 775.751038,973.562866 
	C734.055176,951.193176 692.380920,928.782959 650.661438,906.457275 
	C640.092102,900.801270 635.004333,903.927307 635.002625,915.843384 
	C634.984436,1043.999023 635.014221,1172.154785 634.841614,1300.310303 
	C634.831787,1307.604614 637.473450,1311.973511 643.844177,1315.334961 
	C669.257019,1328.743774 694.487183,1342.498657 719.783325,1356.128418 
	C732.624634,1363.047485 732.665100,1363.080933 742.698792,1352.838623 
	C812.084534,1282.011108 881.455750,1211.169434 951.330872,1139.827026 
M576.927673,315.428223 
	C603.021667,288.733307 629.133240,262.055511 655.173706,235.308456 
	C657.107361,233.322296 658.983887,231.039810 660.090515,228.542175 
	C662.041687,224.138245 658.726074,219.173065 653.923584,218.967438 
	C651.800110,218.876495 649.603027,219.175949 647.520447,219.652588 
	C607.914856,228.717300 568.333008,237.885834 528.723083,246.931335 
	C436.424255,268.009094 344.112457,289.029938 251.808380,310.084625 
	C244.852264,311.671295 243.004608,314.012238 243.004364,321.135681 
	C242.995544,576.799255 243.006699,832.462891 242.896774,1088.126465 
	C242.894104,1094.327026 245.454010,1097.915283 250.658966,1100.737549 
	C303.232635,1129.243164 355.742188,1157.866821 408.272949,1186.451660 
	C423.445709,1194.707886 438.595123,1203.008057 453.821686,1211.164185 
	C460.801147,1214.902710 465.035614,1212.869385 466.356812,1205.149902 
	C466.913483,1201.897583 466.867584,1198.519165 466.867920,1195.197998 
	C466.891815,942.701050 466.906036,690.204041 466.817749,437.707123 
	C466.815613,431.577789 467.938202,426.534332 472.463257,421.946167 
	C507.218658,386.706085 541.797058,351.291443 576.927673,315.428223 
z"/>
<path fill="#FFFFFE" opacity="1.000000" stroke="none" 
	d="
M951.081299,1140.079590 
	C881.455750,1211.169434 812.084534,1282.011108 742.698792,1352.838623 
	C732.665100,1363.080933 732.624634,1363.047485 719.783325,1356.128418 
	C694.487183,1342.498657 669.257019,1328.743774 643.844177,1315.334961 
	C637.473450,1311.973511 634.831787,1307.604614 634.841614,1300.310303 
	C635.014221,1172.154785 634.984436,1043.999023 635.002625,915.843384 
	C635.004333,903.927307 640.092102,900.801270 650.661438,906.457275 
	C692.380920,928.782959 734.055176,951.193176 775.751038,973.562866 
	C790.530334,981.491821 805.262146,989.512695 820.141907,997.248779 
	C825.792664,1000.186646 828.289307,1004.101685 828.172180,1010.698303 
	C827.808228,1031.190308 827.995544,1051.692505 828.029785,1072.190674 
	C828.033081,1074.158081 828.157776,1076.221680 828.748291,1078.074097 
	C830.639099,1084.005493 836.563477,1085.872070 841.404297,1081.994507 
	C844.120728,1079.818604 846.506836,1077.216309 848.952759,1074.718872 
	C894.192871,1028.526367 939.362305,982.264526 984.727173,936.195068 
	C989.917908,930.923706 992.097046,925.302734 992.063293,917.980896 
	C991.860046,873.818848 991.952148,829.655579 991.930420,785.492676 
	C991.927856,780.273438 992.113770,774.694763 986.196106,772.305420 
	C980.427673,769.976318 976.989319,774.155884 973.431763,777.781677 
	C940.403198,811.444885 907.340942,845.075012 874.276794,878.703186 
	C867.558655,885.536011 866.333435,885.692749 857.899048,881.111206 
	C786.236877,842.185181 714.597351,803.217346 642.871460,764.409180 
	C637.188049,761.334045 634.857666,757.385010 634.865417,750.916565 
	C634.991028,646.092407 634.977905,541.268005 634.871216,436.443756 
	C634.865051,430.391144 636.562134,425.552032 640.815796,421.223846 
	C723.046997,337.552155 805.238220,253.841125 887.362610,170.064651 
	C891.978394,165.355972 897.279297,162.502411 903.614868,161.044388 
	C987.309326,141.783783 1070.988403,122.456345 1154.680786,103.186874 
	C1168.573853,99.988121 1182.512939,96.989975 1196.429199,93.891640 
	C1208.863892,91.123100 1211.921509,93.612518 1211.922729,106.611359 
	C1211.935181,232.100601 1211.941162,357.589844 1211.947754,483.079071 
	C1211.954224,609.234924 1211.908569,735.390869 1212.075928,861.546509 
	C1212.087280,870.150513 1209.448486,876.785156 1203.432983,882.903076 
	C1120.013428,967.744080 1036.723389,1052.712280 953.403198,1137.651001 
	C952.701904,1138.365967 952.021240,1139.101196 951.081299,1140.079590 
M991.999939,490.500000 
	C991.999756,423.694092 992.000366,356.888184 991.995728,290.082275 
	C991.995605,288.250580 992.119019,286.394470 991.874390,284.591919 
	C991.241272,279.927185 988.383057,276.269440 983.898743,276.507904 
	C980.567627,276.685028 976.708008,279.012451 974.240295,281.520142 
	C938.136841,318.208984 902.242371,355.103333 866.251465,391.903107 
	C862.540222,395.697754 860.937012,399.993713 860.945190,405.332001 
	C861.039551,466.973297 861.006287,528.614807 861.010559,590.256287 
	C861.012756,621.410217 860.990417,652.564148 861.062866,683.717957 
	C861.073914,688.484192 861.767151,693.169922 867.036560,695.287170 
	C871.767151,697.187988 875.054077,694.431641 878.008667,691.426575 
	C914.215027,654.601990 950.377319,617.734131 986.546021,580.872620 
	C990.328369,577.017822 992.113647,572.536560 992.075439,566.968628 
	C991.902710,541.813416 992.000000,516.656372 991.999939,490.500000 
z"/>
<path fill="#FFFEFE" opacity="1.000000" stroke="none" 
	d="
M576.679077,315.679626 
	C541.797058,351.291443 507.218658,386.706085 472.463257,421.946167 
	C467.938202,426.534332 466.815613,431.577789 466.817749,437.707123 
	C466.906036,690.204041 466.891815,942.701050 466.867920,1195.197998 
	C466.867584,1198.519165 466.913483,1201.897583 466.356812,1205.149902 
	C465.035614,1212.869385 460.801147,1214.902710 453.821686,1211.164185 
	C438.595123,1203.008057 423.445709,1194.707886 408.272949,1186.451660 
	C355.742188,1157.866821 303.232635,1129.243164 250.658966,1100.737549 
	C245.454010,1097.915283 242.894104,1094.327026 242.896774,1088.126465 
	C243.006699,832.462891 242.995544,576.799255 243.004364,321.135681 
	C243.004608,314.012238 244.852264,311.671295 251.808380,310.084625 
	C344.112457,289.029938 436.424255,268.009094 528.723083,246.931335 
	C568.333008,237.885834 607.914856,228.717300 647.520447,219.652588 
	C649.603027,219.175949 651.800110,218.876495 653.923584,218.967438 
	C658.726074,219.173065 662.041687,224.138245 660.090515,228.542175 
	C658.983887,231.039810 657.107361,233.322296 655.173706,235.308456 
	C629.133240,262.055511 603.021667,288.733307 576.679077,315.679626 
z"/>
<path fill="#EF512D" opacity="1.000000" stroke="none" 
	d="
M992.000000,491.000000 
	C992.000000,516.656372 991.902710,541.813416 992.075439,566.968628 
	C992.113647,572.536560 990.328369,577.017822 986.546021,580.872620 
	C950.377319,617.734131 914.215027,654.601990 878.008667,691.426575 
	C875.054077,694.431641 871.767151,697.187988 867.036560,695.287170 
	C861.767151,693.169922 861.073914,688.484192 861.062866,683.717957 
	C860.990417,652.564148 861.012756,621.410217 861.010559,590.256287 
	C861.006287,528.614807 861.039551,466.973297 860.945190,405.332001 
	C860.937012,399.993713 862.540222,395.697754 866.251465,391.903107 
	C902.242371,355.103333 938.136841,318.208984 974.240295,281.520142 
	C976.708008,279.012451 980.567627,276.685028 983.898743,276.507904 
	C988.383057,276.269440 991.241272,279.927185 991.874390,284.591919 
	C992.119019,286.394470 991.995605,288.250580 991.995728,290.082275 
	C992.000366,356.888184 991.999756,423.694092 992.000000,491.000000 
z"/>
</svg>